<?xml version="1.0" encoding="UTF-8"?>
<svg viewBox="0 0 509 100" version="1.1" xmlns="http://www.w3.org/2000/svg" xmlns:xlink="http://www.w3.org/1999/xlink">
    <!-- Generator: Sketch 49.3 (51167) - http://www.bohemiancoding.com/sketch -->
    <defs>
        <path d="M155.19,12.449 C155.19,12.74 155.216,13.01 155.27,13.264 C155.324,13.514 155.417,13.732 155.557,13.915 C155.693,14.099 155.89,14.24 156.141,14.341 C156.395,14.439 156.718,14.488 157.116,14.488 L158.332,14.488 C158.503,14.488 158.644,14.55 158.77,14.672 C158.89,14.796 158.953,14.941 158.953,15.109 L158.953,15.843 C158.953,16.011 158.891,16.155 158.77,16.278 C158.643,16.401 158.501,16.462 158.332,16.462 L156.89,16.462 C155.559,16.462 154.595,16.117 154.001,15.429 C153.4,14.741 153.104,13.746 153.104,12.449 L153.104,6.509 L151.407,6.509 C151.239,6.509 151.094,6.447 150.971,6.325 C150.85,6.202 150.788,6.056 150.788,5.888 L150.788,5.156 C150.788,4.988 150.85,4.842 150.971,4.718 C151.092,4.596 151.239,4.534 151.407,4.534 L153.104,4.534 L153.104,0.796 C153.104,0.628 153.166,0.482 153.29,0.362 C153.409,0.238 153.559,0.177 153.725,0.177 L154.576,0.177 C154.742,0.177 154.889,0.238 155.013,0.362 C155.133,0.482 155.196,0.628 155.196,0.796 L155.196,4.534 L158.107,4.534 C158.278,4.534 158.421,4.596 158.545,4.718 C158.668,4.842 158.729,4.987 158.729,5.156 L158.729,5.888 C158.729,6.056 158.668,6.202 158.545,6.325 C158.423,6.448 158.278,6.509 158.107,6.509 L155.196,6.509 L155.196,12.449 L155.19,12.449 Z M148.926,15.844 C148.926,16.012 148.866,16.156 148.743,16.279 C148.622,16.402 148.474,16.463 148.308,16.463 L147.458,16.463 C147.29,16.463 147.146,16.402 147.02,16.279 C146.9,16.156 146.836,16.012 146.836,15.844 L146.836,9.788 C146.836,8.611 146.554,7.732 145.99,7.152 C145.424,6.569 144.636,6.278 143.628,6.278 C142.664,6.278 141.886,6.569 141.3,7.152 C140.708,7.732 140.417,8.611 140.417,9.788 L140.417,15.844 C140.417,16.012 140.354,16.156 140.232,16.279 C140.11,16.402 139.963,16.463 139.795,16.463 L138.946,16.463 C138.777,16.463 138.633,16.402 138.51,16.279 C138.387,16.156 138.326,16.012 138.326,15.844 L138.326,0.797 C138.326,0.629 138.388,0.483 138.51,0.363 C138.631,0.239 138.777,0.178 138.946,0.178 L139.795,0.178 C139.963,0.178 140.108,0.239 140.232,0.363 C140.352,0.483 140.417,0.629 140.417,0.797 L140.417,5.866 C140.706,5.482 141.139,5.128 141.712,4.799 C142.285,4.47 143.038,4.306 143.97,4.306 C144.69,4.306 145.355,4.426 145.969,4.663 C146.576,4.897 147.1,5.236 147.538,5.67 C147.975,6.108 148.312,6.645 148.556,7.288 C148.804,7.93 148.923,8.649 148.923,9.445 L148.923,15.844 L148.926,15.844 Z M127.139,11.301 C127.201,11.913 127.336,12.432 127.542,12.861 C127.746,13.288 127.998,13.64 128.299,13.915 C128.595,14.19 128.929,14.394 129.296,14.525 C129.661,14.654 130.036,14.72 130.417,14.72 C131.151,14.72 131.778,14.581 132.3,14.305 C132.82,14.033 133.226,13.573 133.515,12.93 C133.624,12.686 133.733,12.52 133.849,12.437 C133.96,12.353 134.105,12.313 134.272,12.313 L134.96,12.313 C135.128,12.313 135.277,12.373 135.407,12.493 C135.539,12.617 135.596,12.763 135.578,12.93 C135.564,13.297 135.446,13.698 135.224,14.135 C135.002,14.57 134.673,14.975 134.238,15.349 C133.803,15.724 133.267,16.04 132.634,16.3 C132,16.56 131.259,16.691 130.417,16.691 C129.578,16.691 128.83,16.554 128.183,16.278 C127.533,16.002 126.983,15.628 126.532,15.154 C126.084,14.681 125.728,14.124 125.476,13.48 C125.225,12.837 125.083,12.15 125.053,11.417 C125.036,11.173 125.024,10.871 125.018,10.512 C125.011,10.152 125.022,9.842 125.053,9.583 C125.114,8.848 125.271,8.16 125.522,7.517 C125.776,6.877 126.122,6.319 126.566,5.844 C127.008,5.37 127.551,4.995 128.196,4.719 C128.839,4.444 129.58,4.307 130.419,4.307 C131.261,4.307 132.002,4.438 132.636,4.698 C133.269,4.957 133.805,5.275 134.24,5.65 C134.677,6.024 135.006,6.429 135.226,6.866 C135.449,7.3 135.567,7.701 135.58,8.068 C135.6,8.235 135.541,8.382 135.41,8.505 C135.279,8.626 135.13,8.689 134.962,8.689 L134.274,8.689 C134.107,8.689 133.962,8.647 133.851,8.561 C133.735,8.479 133.626,8.313 133.517,8.069 C133.228,7.426 132.822,6.969 132.302,6.694 C131.781,6.418 131.155,6.279 130.419,6.279 C130.038,6.279 129.661,6.343 129.285,6.474 C128.907,6.606 128.573,6.807 128.274,7.084 C127.977,7.359 127.726,7.71 127.52,8.138 C127.312,8.565 127.186,9.085 127.139,9.697 C127.093,10.262 127.093,10.798 127.139,11.301 Z M114.318,9.42 L120.764,9.42 L120.764,9.353 C120.764,8.419 120.47,7.673 119.881,7.116 C119.291,6.558 118.506,6.279 117.529,6.279 C117.086,6.279 116.675,6.353 116.29,6.499 C115.908,6.645 115.57,6.85 115.279,7.117 C114.989,7.385 114.759,7.71 114.593,8.091 C114.424,8.474 114.332,8.895 114.316,9.354 L114.318,9.42 Z M112.279,9.353 C112.341,8.649 112.507,7.992 112.781,7.38 C113.055,6.769 113.418,6.234 113.861,5.775 C114.303,5.315 114.836,4.956 115.456,4.697 C116.074,4.437 116.767,4.306 117.531,4.306 C118.354,4.306 119.093,4.44 119.745,4.708 C120.393,4.974 120.948,5.36 121.405,5.866 C121.863,6.37 122.217,6.98 122.464,7.699 C122.705,8.418 122.829,9.222 122.829,10.109 L122.829,10.727 C122.829,10.895 122.767,11.04 122.647,11.164 C122.519,11.286 122.377,11.346 122.209,11.346 L114.318,11.346 L114.318,11.485 C114.35,12.524 114.668,13.324 115.27,13.882 C115.874,14.44 116.628,14.72 117.531,14.72 C118.373,14.72 119.002,14.601 119.422,14.363 C119.844,14.127 120.185,13.861 120.443,13.573 C120.568,13.449 120.672,13.367 120.765,13.32 C120.855,13.275 120.994,13.249 121.179,13.249 L121.864,13.249 C122.034,13.249 122.186,13.311 122.324,13.434 C122.465,13.556 122.514,13.702 122.486,13.87 C122.44,14.146 122.309,14.449 122.097,14.774 C121.88,15.105 121.572,15.41 121.165,15.693 C120.761,15.975 120.254,16.213 119.652,16.403 C119.048,16.596 118.34,16.691 117.53,16.691 C116.764,16.691 116.079,16.559 115.466,16.29 C114.854,16.023 114.323,15.656 113.869,15.189 C113.421,14.722 113.056,14.173 112.78,13.537 C112.506,12.903 112.341,12.21 112.278,11.463 C112.201,10.76 112.201,10.057 112.279,9.353 Z M110.466,4.535 C110.634,4.535 110.778,4.597 110.903,4.719 C111.024,4.843 111.087,4.988 111.087,5.157 L111.087,5.889 C111.087,6.057 111.025,6.203 110.903,6.326 C110.78,6.449 110.634,6.51 110.466,6.51 L109.135,6.51 C107.376,6.51 106.497,7.387 106.497,9.145 L106.497,15.844 C106.497,16.012 106.435,16.156 106.313,16.279 C106.19,16.402 106.045,16.463 105.877,16.463 L105.026,16.463 C104.859,16.463 104.714,16.402 104.59,16.279 C104.468,16.156 104.405,16.012 104.405,15.844 L104.405,5.156 C104.405,4.988 104.467,4.842 104.59,4.718 C104.713,4.596 104.859,4.534 105.026,4.534 L105.877,4.534 C106.045,4.534 106.189,4.596 106.313,4.718 C106.434,4.842 106.497,4.987 106.497,5.156 L106.497,5.866 C106.803,5.406 107.168,5.07 107.598,4.858 C108.027,4.642 108.585,4.535 109.275,4.535 L110.466,4.535 Z M99.594,13.158 C99.594,12.869 99.513,12.628 99.352,12.437 C99.194,12.247 98.955,12.083 98.63,11.944 C98.309,11.805 97.9,11.676 97.402,11.555 C96.904,11.431 96.329,11.301 95.673,11.164 C94.434,10.904 93.565,10.473 93.069,9.868 C92.571,9.264 92.322,8.557 92.322,7.747 C92.322,7.288 92.414,6.851 92.599,6.438 C92.783,6.026 93.058,5.659 93.425,5.339 C93.792,5.017 94.253,4.765 94.812,4.582 C95.37,4.398 96.025,4.306 96.771,4.306 C97.522,4.306 98.174,4.389 98.734,4.558 C99.293,4.727 99.76,4.94 100.144,5.2 C100.524,5.46 100.817,5.74 101.015,6.037 C101.214,6.335 101.321,6.621 101.334,6.896 C101.352,7.064 101.295,7.21 101.166,7.331 C101.035,7.455 100.885,7.515 100.718,7.515 L99.96,7.515 C99.868,7.515 99.758,7.498 99.63,7.46 C99.499,7.422 99.379,7.332 99.272,7.195 C99.074,6.935 98.777,6.717 98.389,6.542 C97.997,6.367 97.46,6.277 96.771,6.277 C96.067,6.277 95.5,6.407 95.065,6.668 C94.627,6.928 94.413,7.287 94.413,7.746 C94.413,8.038 94.473,8.27 94.597,8.445 C94.717,8.622 94.915,8.774 95.191,8.904 C95.467,9.034 95.83,9.152 96.28,9.26 C96.732,9.365 97.294,9.495 97.968,9.65 C98.672,9.802 99.261,9.997 99.736,10.233 C100.211,10.472 100.59,10.738 100.882,11.035 C101.174,11.333 101.38,11.662 101.5,12.023 C101.622,12.381 101.684,12.761 101.684,13.156 C101.684,13.616 101.573,14.058 101.354,14.487 C101.129,14.916 100.815,15.291 100.399,15.612 C99.985,15.932 99.485,16.195 98.898,16.391 C98.309,16.591 97.638,16.69 96.892,16.69 C96.141,16.69 95.475,16.598 94.895,16.417 C94.316,16.233 93.819,16.007 93.406,15.739 C92.994,15.472 92.677,15.18 92.453,14.866 C92.232,14.553 92.111,14.26 92.099,13.984 C92.082,13.816 92.134,13.671 92.261,13.549 C92.382,13.425 92.533,13.366 92.717,13.366 L93.542,13.366 C93.635,13.366 93.742,13.377 93.864,13.399 C93.984,13.421 94.099,13.509 94.209,13.664 C94.452,13.999 94.79,14.26 95.218,14.443 C95.647,14.627 96.2,14.719 96.893,14.719 C97.229,14.719 97.561,14.68 97.889,14.605 C98.218,14.526 98.509,14.42 98.761,14.282 C99.015,14.146 99.217,13.98 99.368,13.789 C99.517,13.599 99.594,13.388 99.594,13.158 Z M90.192,4.535 C90.358,4.535 90.504,4.597 90.627,4.719 C90.75,4.843 90.812,4.988 90.812,5.157 L90.812,5.889 C90.812,6.057 90.75,6.203 90.627,6.326 C90.506,6.449 90.358,6.51 90.192,6.51 L88.861,6.51 C87.102,6.51 86.223,7.387 86.223,9.145 L86.223,15.844 C86.223,16.012 86.161,16.156 86.039,16.279 C85.917,16.402 85.768,16.463 85.603,16.463 L84.755,16.463 C84.585,16.463 84.441,16.402 84.317,16.279 C84.195,16.156 84.134,16.012 84.134,15.844 L84.134,5.156 C84.134,4.988 84.195,4.842 84.317,4.718 C84.44,4.596 84.586,4.534 84.755,4.534 L85.603,4.534 C85.768,4.534 85.915,4.596 86.039,4.718 C86.161,4.842 86.223,4.987 86.223,5.156 L86.223,5.866 C86.527,5.406 86.894,5.07 87.324,4.858 C87.754,4.642 88.31,4.535 89,4.535 L90.192,4.535 Z M80.812,15.844 C80.812,16.012 80.75,16.156 80.627,16.279 C80.503,16.402 80.358,16.463 80.189,16.463 L79.339,16.463 C79.173,16.463 79.027,16.402 78.905,16.279 C78.78,16.156 78.721,16.012 78.721,15.844 L78.721,9.788 C78.721,8.611 78.438,7.732 77.87,7.152 C77.305,6.569 76.516,6.278 75.508,6.278 C74.544,6.278 73.771,6.569 73.178,7.152 C72.593,7.732 72.295,8.611 72.295,9.788 L72.295,15.844 C72.295,16.012 72.234,16.156 72.11,16.279 C71.991,16.402 71.842,16.463 71.675,16.463 L70.827,16.463 C70.658,16.463 70.515,16.402 70.389,16.279 C70.269,16.156 70.206,16.012 70.206,15.844 L70.206,0.797 C70.206,0.629 70.268,0.483 70.389,0.363 C70.514,0.239 70.659,0.178 70.827,0.178 L71.675,0.178 C71.842,0.178 71.988,0.239 72.11,0.363 C72.234,0.483 72.295,0.629 72.295,0.797 L72.295,5.866 C72.588,5.482 73.019,5.128 73.593,4.799 C74.167,4.47 74.917,4.306 75.854,4.306 C76.571,4.306 77.236,4.426 77.846,4.663 C78.46,4.897 78.986,5.236 79.417,5.67 C79.853,6.108 80.192,6.645 80.438,7.288 C80.681,7.93 80.806,8.649 80.806,9.445 L80.806,15.844 L80.812,15.844 Z M58.929,9.42 L65.376,9.42 L65.376,9.353 C65.376,8.419 65.078,7.673 64.493,7.116 C63.901,6.558 63.12,6.279 62.139,6.279 C61.696,6.279 61.284,6.353 60.9,6.499 C60.518,6.645 60.182,6.85 59.891,7.117 C59.601,7.385 59.37,7.71 59.204,8.091 C59.033,8.474 58.942,8.895 58.927,9.354 L58.929,9.42 Z M56.888,9.353 C56.949,8.649 57.119,7.992 57.392,7.38 C57.669,6.769 58.029,6.234 58.472,5.775 C58.915,5.315 59.447,4.956 60.067,4.697 C60.683,4.437 61.378,4.306 62.141,4.306 C62.967,4.306 63.703,4.44 64.354,4.708 C65.002,4.974 65.559,5.36 66.016,5.866 C66.477,6.37 66.828,6.98 67.072,7.699 C67.317,8.418 67.439,9.222 67.439,10.109 L67.439,10.727 C67.439,10.895 67.378,11.04 67.255,11.164 C67.133,11.286 66.985,11.346 66.819,11.346 L58.927,11.346 L58.927,11.485 C58.958,12.524 59.277,13.324 59.882,13.882 C60.484,14.44 61.237,14.72 62.139,14.72 C62.981,14.72 63.612,14.601 64.032,14.363 C64.45,14.127 64.791,13.861 65.053,13.573 C65.175,13.449 65.282,13.367 65.376,13.32 C65.467,13.275 65.604,13.249 65.786,13.249 L66.475,13.249 C66.641,13.249 66.795,13.311 66.931,13.434 C67.07,13.556 67.125,13.702 67.093,13.87 C67.048,14.146 66.918,14.449 66.702,14.774 C66.487,15.105 66.178,15.41 65.771,15.693 C65.367,15.975 64.862,16.213 64.259,16.403 C63.654,16.596 62.947,16.691 62.137,16.691 C61.372,16.691 60.686,16.559 60.072,16.29 C59.464,16.023 58.929,15.656 58.479,15.189 C58.029,14.722 57.667,14.173 57.388,13.537 C57.117,12.903 56.945,12.21 56.884,11.463 C56.813,10.76 56.813,10.057 56.888,9.353 Z M48.471,11.417 L48.471,15.845 C48.471,16.013 48.41,16.157 48.288,16.28 C48.164,16.403 48.02,16.464 47.85,16.464 L47.004,16.464 C46.834,16.464 46.69,16.403 46.566,16.28 C46.442,16.157 46.384,16.013 46.384,15.845 L46.384,0.797 C46.384,0.629 46.443,0.483 46.566,0.363 C46.688,0.239 46.834,0.178 47.004,0.178 L47.85,0.178 C48.022,0.178 48.164,0.239 48.288,0.363 C48.41,0.483 48.471,0.629 48.471,0.797 L48.471,8.39 L52.945,4.925 C53.037,4.849 53.155,4.766 53.299,4.674 C53.445,4.582 53.625,4.535 53.842,4.535 L54.987,4.535 C55.139,4.535 55.269,4.589 55.38,4.697 C55.484,4.804 55.537,4.934 55.537,5.086 C55.537,5.163 55.525,5.237 55.504,5.304 C55.482,5.373 55.406,5.454 55.286,5.546 L49.757,9.858 L55.859,15.478 C55.955,15.569 56.011,15.646 56.044,15.706 C56.073,15.767 56.089,15.836 56.089,15.912 C56.089,16.067 56.037,16.197 55.931,16.302 C55.826,16.41 55.695,16.464 55.539,16.464 L54.462,16.464 C54.233,16.464 54.038,16.42 53.876,16.328 C53.716,16.236 53.599,16.15 53.522,16.074 L48.471,11.417 Z M43.77,4.535 C43.938,4.535 44.083,4.597 44.207,4.719 C44.329,4.843 44.391,4.988 44.391,5.157 L44.391,5.889 C44.391,6.057 44.329,6.203 44.207,6.326 C44.085,6.449 43.938,6.51 43.77,6.51 L42.44,6.51 C40.682,6.51 39.801,7.387 39.801,9.145 L39.801,15.844 C39.801,16.012 39.739,16.156 39.618,16.279 C39.495,16.402 39.348,16.463 39.181,16.463 L38.333,16.463 C38.163,16.463 38.019,16.402 37.895,16.279 C37.773,16.156 37.712,16.012 37.712,15.844 L37.712,5.156 C37.712,4.988 37.773,4.842 37.895,4.718 C38.018,4.596 38.164,4.534 38.333,4.534 L39.181,4.534 C39.348,4.534 39.493,4.596 39.618,4.718 C39.738,4.842 39.801,4.987 39.801,5.156 L39.801,5.866 C40.108,5.406 40.472,5.07 40.903,4.858 C41.333,4.642 41.889,4.535 42.581,4.535 L43.77,4.535 Z M26.428,9.42 L32.876,9.42 L32.876,9.353 C32.876,8.419 32.58,7.673 31.993,7.116 C31.404,6.558 30.62,6.279 29.639,6.279 C29.196,6.279 28.785,6.353 28.4,6.499 C28.018,6.645 27.682,6.85 27.39,7.117 C27.102,7.385 26.87,7.71 26.706,8.091 C26.536,8.474 26.445,8.895 26.426,9.354 L26.428,9.42 Z M24.389,9.353 C24.451,8.649 24.618,7.992 24.892,7.38 C25.171,6.769 25.531,6.234 25.971,5.775 C26.415,5.315 26.946,4.956 27.567,4.697 C28.185,4.437 28.879,4.306 29.641,4.306 C30.465,4.306 31.203,4.44 31.855,4.708 C32.504,4.974 33.059,5.36 33.516,5.866 C33.977,6.37 34.328,6.98 34.574,7.699 C34.819,8.418 34.942,9.222 34.942,10.109 L34.942,10.727 C34.942,10.895 34.879,11.04 34.757,11.164 C34.635,11.286 34.487,11.346 34.319,11.346 L26.427,11.346 L26.427,11.485 C26.46,12.524 26.778,13.324 27.383,13.882 C27.986,14.44 28.737,14.72 29.64,14.72 C30.482,14.72 31.112,14.601 31.534,14.363 C31.954,14.127 32.296,13.861 32.553,13.573 C32.677,13.449 32.784,13.367 32.877,13.32 C32.968,13.275 33.106,13.249 33.288,13.249 L33.976,13.249 C34.142,13.249 34.298,13.311 34.433,13.434 C34.574,13.556 34.624,13.702 34.594,13.87 C34.551,14.146 34.42,14.449 34.205,14.774 C33.987,15.105 33.681,15.41 33.272,15.693 C32.87,15.975 32.364,16.213 31.761,16.403 C31.157,16.596 30.449,16.691 29.638,16.691 C28.875,16.691 28.187,16.559 27.574,16.29 C26.965,16.023 26.433,15.656 25.982,15.189 C25.533,14.722 25.17,14.173 24.889,13.537 C24.617,12.903 24.449,12.21 24.386,11.463 C24.313,10.76 24.313,10.057 24.389,9.353 Z M21.429,0.98 C21.476,0.856 21.56,0.732 21.684,0.602 C21.806,0.472 22.02,0.407 22.328,0.407 L23.175,0.407 C23.314,0.407 23.432,0.457 23.529,0.557 C23.63,0.656 23.679,0.775 23.679,0.911 C23.679,0.986 23.664,1.065 23.631,1.141 L18.681,15.542 C18.585,15.817 18.438,16.039 18.234,16.208 C18.026,16.376 17.768,16.461 17.463,16.461 L16.548,16.461 C16.238,16.461 15.988,16.376 15.789,16.208 C15.591,16.04 15.446,15.818 15.353,15.542 L10.374,1.141 C10.346,1.065 10.329,0.986 10.329,0.911 C10.329,0.775 10.378,0.655 10.477,0.557 C10.578,0.457 10.696,0.407 10.835,0.407 L11.682,0.407 C11.986,0.407 12.202,0.472 12.324,0.602 C12.447,0.732 12.529,0.856 12.579,0.98 L17.004,14.168 L21.429,0.98 Z M1.615,10.567 C1.446,10.567 1.303,10.506 1.177,10.383 C1.058,10.262 0.994,10.117 0.994,9.948 L0.994,9.214 C0.994,9.046 1.056,8.901 1.177,8.779 C1.302,8.657 1.446,8.595 1.615,8.595 L8.382,8.595 C8.549,8.595 8.696,8.657 8.817,8.779 C8.938,8.9 9.003,9.045 9.003,9.214 L9.003,9.948 C9.003,10.116 8.94,10.261 8.817,10.383 C8.698,10.507 8.549,10.567 8.382,10.567 L1.615,10.567 Z" id="path-1"></path>
        <path d="M120.681,25.546 L120.681,35.285 C120.681,35.655 120.546,35.974 120.278,36.243 C120.009,36.513 119.689,36.647 119.32,36.647 L117.453,36.647 C117.085,36.647 116.762,36.513 116.492,36.243 C116.225,35.974 116.09,35.655 116.09,35.285 L116.09,2.183 C116.09,1.812 116.227,1.493 116.492,1.224 C116.762,0.955 117.085,0.821 117.453,0.821 L119.32,0.821 C119.689,0.821 120.009,0.955 120.278,1.224 C120.548,1.494 120.681,1.813 120.681,2.183 L120.681,18.885 L130.523,11.265 C130.723,11.097 130.983,10.913 131.302,10.712 C131.621,10.508 132.02,10.407 132.489,10.407 L135.011,10.407 C135.348,10.407 135.635,10.526 135.866,10.761 C136.102,10.996 136.22,11.282 136.22,11.619 C136.22,11.788 136.196,11.948 136.145,12.098 C136.093,12.251 135.933,12.428 135.666,12.629 L123.506,22.115 L136.927,34.476 C137.128,34.679 137.264,34.845 137.33,34.982 C137.394,35.116 137.434,35.267 137.434,35.435 C137.434,35.773 137.314,36.058 137.08,36.292 C136.845,36.527 136.559,36.646 136.222,36.646 L133.851,36.646 C133.346,36.646 132.919,36.545 132.566,36.343 C132.212,36.142 131.953,35.956 131.782,35.787 L120.681,25.546 Z M91.465,25.293 C91.599,26.639 91.897,27.783 92.352,28.724 C92.805,29.667 93.361,30.439 94.014,31.045 C94.67,31.651 95.405,32.097 96.208,32.382 C97.015,32.669 97.841,32.811 98.682,32.811 C100.297,32.811 101.674,32.508 102.822,31.902 C103.963,31.297 104.854,30.287 105.496,28.877 C105.728,28.337 105.975,27.977 106.227,27.791 C106.476,27.607 106.79,27.512 107.161,27.512 L108.674,27.512 C109.045,27.512 109.371,27.65 109.658,27.919 C109.945,28.189 110.069,28.505 110.037,28.877 C110.002,29.684 109.744,30.565 109.255,31.524 C108.768,32.482 108.044,33.374 107.085,34.198 C106.125,35.022 104.948,35.721 103.554,36.291 C102.157,36.865 100.533,37.149 98.684,37.149 C96.833,37.149 95.194,36.847 93.765,36.242 C92.335,35.636 91.122,34.811 90.133,33.77 C89.138,32.726 88.363,31.499 87.812,30.086 C87.255,28.674 86.944,27.161 86.876,25.545 C86.846,25.008 86.815,24.342 86.801,23.552 C86.785,22.76 86.809,22.08 86.876,21.509 C87.009,19.895 87.355,18.38 87.908,16.967 C88.466,15.553 89.23,14.326 90.209,13.284 C91.184,12.241 92.377,11.415 93.791,10.811 C95.201,10.205 96.833,9.902 98.684,9.902 C100.534,9.902 102.157,10.188 103.554,10.759 C104.95,11.331 106.125,12.029 107.085,12.853 C108.044,13.678 108.768,14.568 109.255,15.528 C109.744,16.486 110.002,17.369 110.037,18.177 C110.069,18.547 109.945,18.867 109.658,19.136 C109.371,19.405 109.045,19.539 108.674,19.539 L107.161,19.539 C106.792,19.539 106.476,19.447 106.227,19.261 C105.975,19.075 105.728,18.714 105.496,18.177 C104.854,16.764 103.963,15.755 102.822,15.149 C101.676,14.545 100.299,14.243 98.682,14.243 C97.841,14.243 97.007,14.384 96.184,14.671 C95.36,14.958 94.621,15.403 93.966,16.007 C93.309,16.612 92.753,17.387 92.299,18.328 C91.846,19.271 91.569,20.413 91.465,21.759 C91.367,23.007 91.367,24.184 91.465,25.293 Z M63.262,21.156 L77.439,21.156 L77.439,21.003 C77.439,18.952 76.793,17.312 75.498,16.085 C74.202,14.857 72.477,14.244 70.327,14.244 C69.352,14.244 68.44,14.403 67.601,14.723 C66.761,15.041 66.02,15.495 65.38,16.085 C64.739,16.674 64.235,17.389 63.867,18.229 C63.496,19.07 63.293,19.996 63.262,21.003 L63.262,21.156 Z M58.769,21.003 C58.904,19.456 59.276,18.011 59.879,16.666 C60.483,15.319 61.276,14.143 62.252,13.134 C63.228,12.124 64.396,11.333 65.757,10.761 C67.122,10.19 68.643,9.904 70.324,9.904 C72.137,9.904 73.762,10.198 75.193,10.786 C76.625,11.374 77.842,12.224 78.849,13.335 C79.86,14.446 80.632,15.789 81.173,17.372 C81.709,18.953 81.981,20.72 81.981,22.671 L81.981,24.032 C81.981,24.403 81.843,24.722 81.575,24.991 C81.305,25.259 80.987,25.394 80.619,25.394 L63.262,25.394 L63.262,25.696 C63.329,27.985 64.025,29.741 65.354,30.97 C66.685,32.198 68.341,32.811 70.326,32.811 C72.179,32.811 73.563,32.549 74.49,32.03 C75.416,31.509 76.162,30.927 76.731,30.287 C77.001,30.018 77.239,29.835 77.439,29.734 C77.642,29.633 77.944,29.581 78.348,29.581 L79.862,29.581 C80.231,29.581 80.568,29.716 80.873,29.985 C81.177,30.253 81.294,30.573 81.227,30.943 C81.124,31.549 80.838,32.214 80.368,32.936 C79.896,33.66 79.218,34.332 78.324,34.955 C77.433,35.576 76.324,36.099 74.995,36.519 C73.666,36.939 72.111,37.148 70.329,37.148 C68.645,37.148 67.132,36.855 65.787,36.266 C64.441,35.677 63.271,34.871 62.279,33.845 C61.287,32.819 60.487,31.607 59.883,30.211 C59.279,28.814 58.906,27.294 58.773,25.645 C58.602,24.099 58.602,22.551 58.769,21.003 Z M52.664,35.284 C52.664,35.654 52.529,35.973 52.261,36.242 C51.992,36.512 51.674,36.646 51.302,36.646 L49.438,36.646 C49.069,36.646 48.748,36.512 48.478,36.242 C48.207,35.973 48.073,35.654 48.073,35.284 L48.073,21.962 C48.073,19.374 47.451,17.438 46.21,16.162 C44.966,14.882 43.232,14.245 41.01,14.245 C38.893,14.245 37.187,14.882 35.89,16.162 C34.596,17.438 33.947,19.374 33.947,21.962 L33.947,35.285 C33.947,35.655 33.812,35.974 33.545,36.243 C33.274,36.513 32.959,36.647 32.588,36.647 L30.722,36.647 C30.351,36.647 30.031,36.513 29.761,36.243 C29.491,35.974 29.357,35.655 29.357,35.285 L29.357,2.183 C29.357,1.812 29.493,1.493 29.761,1.224 C30.031,0.955 30.351,0.821 30.722,0.821 L32.588,0.821 C32.959,0.821 33.275,0.955 33.545,1.224 C33.814,1.494 33.947,1.813 33.947,2.183 L33.947,13.335 C34.588,12.495 35.537,11.71 36.801,10.99 C38.06,10.267 39.719,9.904 41.77,9.904 C43.351,9.904 44.815,10.166 46.16,10.685 C47.507,11.207 48.66,11.948 49.62,12.906 C50.576,13.865 51.327,15.05 51.861,16.463 C52.399,17.877 52.67,19.456 52.67,21.206 L52.67,35.284 L52.664,35.284 Z M4.731,25.293 C4.864,26.639 5.157,27.783 5.612,28.724 C6.069,29.667 6.625,30.439 7.278,31.045 C7.934,31.651 8.666,32.097 9.471,32.382 C10.28,32.669 11.104,32.811 11.946,32.811 C13.562,32.811 14.94,32.508 16.086,31.902 C17.227,31.297 18.117,30.287 18.758,28.877 C18.995,28.337 19.239,27.977 19.487,27.791 C19.742,27.607 20.053,27.512 20.425,27.512 L21.94,27.512 C22.309,27.512 22.634,27.65 22.921,27.919 C23.209,28.189 23.332,28.505 23.302,28.877 C23.265,29.684 23.004,30.565 22.518,31.524 C22.031,32.482 21.31,33.374 20.35,34.198 C19.391,35.022 18.212,35.721 16.817,36.291 C15.421,36.865 13.796,37.149 11.948,37.149 C10.096,37.149 8.458,36.847 7.028,36.242 C5.598,35.636 4.388,34.811 3.395,33.77 C2.403,32.726 1.629,31.499 1.076,30.086 C0.519,28.674 0.208,27.161 0.141,25.545 C0.106,25.008 0.079,24.342 0.065,23.552 C0.049,22.76 0.073,22.08 0.141,21.509 C0.274,19.895 0.62,18.38 1.174,16.967 C1.727,15.553 2.495,14.326 3.473,13.284 C4.451,12.241 5.641,11.415 7.053,10.811 C8.465,10.205 10.096,9.902 11.948,9.902 C13.797,9.902 15.422,10.188 16.817,10.759 C18.213,11.331 19.391,12.029 20.35,12.853 C21.31,13.678 22.031,14.568 22.518,15.528 C23.004,16.486 23.265,17.369 23.302,18.177 C23.332,18.547 23.209,18.867 22.921,19.136 C22.634,19.405 22.309,19.539 21.94,19.539 L20.425,19.539 C20.055,19.539 19.741,19.447 19.487,19.261 C19.239,19.075 18.995,18.714 18.758,18.177 C18.116,16.764 17.227,15.755 16.086,15.149 C14.94,14.545 13.564,14.243 11.946,14.243 C11.104,14.243 10.273,14.384 9.45,14.671 C8.627,14.958 7.885,15.403 7.227,16.007 C6.571,16.612 6.018,17.387 5.561,18.328 C5.108,19.271 4.832,20.413 4.731,21.759 C4.631,23.007 4.631,24.184 4.731,25.293 Z" id="path-3"></path>
        <path d="M182.199,25.696 C182.234,25.192 182.249,24.529 182.249,23.705 C182.249,22.881 182.233,22.216 182.199,21.712 C182.096,19.322 181.384,17.481 180.052,16.186 C178.729,14.891 177.003,14.245 174.884,14.245 C172.661,14.245 170.912,14.951 169.633,16.364 C168.36,17.776 167.65,19.694 167.514,22.116 C167.485,23.056 167.485,24 167.514,24.941 C167.65,27.362 168.36,29.28 169.633,30.693 C170.912,32.104 172.661,32.812 174.884,32.812 C176.966,32.812 178.682,32.174 180.031,30.895 C181.375,29.615 182.096,27.885 182.199,25.696 Z M174.378,9.904 C176.465,9.904 178.127,10.267 179.371,10.99 C180.617,11.711 181.557,12.495 182.198,13.335 L182.198,2.183 C182.198,1.812 182.333,1.493 182.601,1.224 C182.871,0.955 183.188,0.821 183.558,0.821 L185.426,0.821 C185.796,0.821 186.116,0.955 186.385,1.224 C186.654,1.494 186.787,1.813 186.787,2.183 L186.787,35.285 C186.787,35.655 186.652,35.974 186.385,36.243 C186.116,36.513 185.795,36.647 185.426,36.647 L183.558,36.647 C183.188,36.647 182.87,36.513 182.601,36.243 C182.332,35.974 182.198,35.655 182.198,35.285 L182.198,33.719 C181.527,34.629 180.567,35.429 179.322,36.116 C178.078,36.806 176.427,37.151 174.379,37.151 C172.796,37.151 171.326,36.873 169.963,36.32 C168.597,35.765 167.416,34.965 166.403,33.922 C165.394,32.88 164.59,31.62 163.984,30.139 C163.378,28.658 163.027,26.993 162.922,25.144 C162.889,24.638 162.875,24.092 162.875,23.502 C162.875,22.914 162.89,22.368 162.922,21.861 C163.027,20.012 163.379,18.347 163.984,16.867 C164.588,15.388 165.394,14.135 166.403,13.109 C167.416,12.083 168.596,11.293 169.963,10.737 C171.326,10.181 172.795,9.904 174.378,9.904 Z M156.615,35.284 C156.615,35.654 156.483,35.973 156.214,36.242 C155.945,36.512 155.625,36.646 155.255,36.646 L153.388,36.646 C153.021,36.646 152.699,36.512 152.429,36.242 C152.16,35.973 152.029,35.654 152.029,35.284 L152.029,2.183 C152.029,1.812 152.161,1.493 152.429,1.224 C152.699,0.955 153.021,0.821 153.388,0.821 L155.255,0.821 C155.625,0.821 155.945,0.955 156.214,1.224 C156.484,1.494 156.615,1.813 156.615,2.183 L156.615,35.284 Z M127.198,21.156 L141.378,21.156 L141.378,21.003 C141.378,18.952 140.731,17.312 139.438,16.085 C138.141,14.857 136.418,14.244 134.265,14.244 C133.29,14.244 132.383,14.403 131.54,14.723 C130.699,15.041 129.96,15.495 129.319,16.085 C128.68,16.674 128.174,17.389 127.805,18.229 C127.436,19.07 127.235,19.996 127.198,21.003 L127.198,21.156 Z M122.709,21.003 C122.844,19.456 123.215,18.011 123.819,16.666 C124.423,15.319 125.214,14.143 126.191,13.134 C127.168,12.124 128.337,11.333 129.698,10.761 C131.059,10.19 132.584,9.904 134.263,9.904 C136.082,9.904 137.703,10.198 139.133,10.786 C140.56,11.374 141.781,12.224 142.791,13.335 C143.799,14.446 144.574,15.789 145.112,17.372 C145.651,18.953 145.919,20.72 145.919,22.671 L145.919,24.032 C145.919,24.403 145.783,24.722 145.515,24.991 C145.246,25.259 144.93,25.394 144.558,25.394 L127.2,25.394 L127.2,25.696 C127.267,27.985 127.968,29.741 129.296,30.97 C130.623,32.198 132.282,32.811 134.266,32.811 C136.116,32.811 137.502,32.549 138.43,32.03 C139.354,31.509 140.101,30.927 140.676,30.287 C140.946,30.018 141.177,29.835 141.38,29.734 C141.583,29.633 141.885,29.581 142.289,29.581 L143.802,29.581 C144.173,29.581 144.51,29.716 144.811,29.985 C145.116,30.253 145.231,30.573 145.165,30.943 C145.067,31.549 144.78,32.214 144.311,32.936 C143.839,33.66 143.158,34.332 142.265,34.955 C141.374,35.576 140.265,36.099 138.935,36.519 C137.609,36.939 136.049,37.148 134.268,37.148 C132.588,37.148 131.074,36.855 129.726,36.266 C128.381,35.677 127.21,34.871 126.219,33.845 C125.226,32.819 124.429,31.607 123.823,30.211 C123.219,28.814 122.847,27.294 122.713,25.645 C122.54,24.099 122.54,22.551 122.709,21.003 Z M111.759,21.712 C111.658,19.322 110.943,17.481 109.616,16.186 C108.285,14.891 106.559,14.245 104.442,14.245 C102.221,14.245 100.472,14.951 99.196,16.364 C97.915,17.776 97.212,19.694 97.075,22.116 C97.042,23.056 97.042,24 97.075,24.941 C97.212,27.362 97.915,29.28 99.196,30.693 C100.472,32.104 102.221,32.812 104.442,32.812 C106.56,32.812 108.285,32.156 109.616,30.843 C110.941,29.533 111.658,27.699 111.759,25.344 C111.793,24.839 111.81,24.234 111.81,23.528 C111.81,22.82 111.793,22.216 111.759,21.712 Z M92.485,21.861 C92.586,20.012 92.938,18.347 93.544,16.867 C94.148,15.388 94.957,14.135 95.968,13.109 C96.975,12.083 98.162,11.293 99.526,10.737 C100.886,10.182 102.359,9.904 103.94,9.904 C106.026,9.904 107.692,10.267 108.937,10.99 C110.18,11.711 111.124,12.495 111.761,13.335 L111.761,11.771 C111.761,11.399 111.895,11.081 112.164,10.813 C112.433,10.544 112.753,10.408 113.122,10.408 L114.989,10.408 C115.359,10.408 115.677,10.544 115.947,10.813 C116.218,11.081 116.351,11.399 116.351,11.771 L116.351,36.292 C116.351,39.791 115.359,42.576 113.374,44.645 C111.39,46.711 108.412,47.747 104.442,47.747 C102.423,47.747 100.701,47.503 99.269,47.017 C97.84,46.529 96.665,45.916 95.738,45.174 C94.813,44.435 94.126,43.627 93.669,42.754 C93.216,41.878 92.972,41.039 92.938,40.23 C92.906,39.859 93.032,39.542 93.317,39.271 C93.601,39.002 93.93,38.867 94.3,38.867 L95.814,38.867 C96.183,38.867 96.496,38.961 96.749,39.145 C97.002,39.332 97.243,39.692 97.48,40.23 C97.579,40.433 97.74,40.71 97.959,41.063 C98.176,41.417 98.53,41.771 99.016,42.123 C99.504,42.476 100.145,42.778 100.933,43.032 C101.726,43.282 102.725,43.41 103.937,43.41 C105.046,43.41 106.082,43.301 107.041,43.081 C107.999,42.863 108.832,42.501 109.54,41.998 C110.246,41.494 110.792,40.819 111.179,39.979 C111.565,39.136 111.76,38.111 111.76,36.901 L111.76,33.72 C111.086,34.63 110.127,35.43 108.885,36.117 C107.64,36.807 105.991,37.152 103.94,37.152 C102.358,37.152 100.887,36.874 99.526,36.321 C98.164,35.766 96.976,34.975 95.968,33.949 C94.957,32.922 94.149,31.669 93.544,30.188 C92.939,28.709 92.586,27.043 92.485,25.193 C92.452,24.69 92.432,24.134 92.432,23.529 C92.432,22.921 92.452,22.367 92.485,21.861 Z M75.683,32.307 C77.028,32.307 78.163,32.155 79.088,31.852 C80.013,31.549 80.761,31.12 81.332,30.564 C81.906,30.011 82.309,29.354 82.544,28.598 C82.78,27.841 82.898,27.006 82.898,26.099 C82.898,25.257 82.78,24.458 82.544,23.703 C82.309,22.946 81.906,22.28 81.332,21.71 C80.761,21.136 80.014,20.69 79.088,20.372 C78.163,20.052 77.027,19.893 75.683,19.893 L72.907,19.893 C72.168,19.893 71.797,19.523 71.797,18.782 L71.797,16.663 C71.797,15.92 72.169,15.551 72.907,15.551 L75.428,15.551 C76.575,15.551 77.533,15.417 78.306,15.148 C79.079,14.879 79.71,14.51 80.2,14.038 C80.687,13.567 81.039,13.021 81.257,12.398 C81.476,11.775 81.586,11.112 81.586,10.405 C81.586,8.894 81.024,7.639 79.896,6.647 C78.771,5.655 77.197,5.16 75.178,5.16 C73.16,5.16 71.588,5.798 70.46,7.077 C69.333,8.354 68.77,10.289 68.77,12.879 L68.77,35.283 C68.77,35.653 68.636,35.972 68.368,36.241 C68.097,36.511 67.78,36.645 67.409,36.645 L65.541,36.645 C65.171,36.645 64.853,36.511 64.583,36.241 C64.313,35.972 64.179,35.653 64.179,35.283 L64.179,12.376 C64.179,10.693 64.45,9.146 64.988,7.733 C65.526,6.321 66.274,5.101 67.234,4.075 C68.191,3.049 69.343,2.25 70.689,1.678 C72.036,1.108 73.532,0.821 75.18,0.821 C76.829,0.821 78.326,1.083 79.671,1.603 C81.017,2.124 82.169,2.824 83.127,3.697 C84.085,4.573 84.834,5.565 85.374,6.673 C85.911,7.784 86.18,8.944 86.18,10.155 C86.18,11.939 85.853,13.42 85.198,14.595 C84.542,15.773 83.793,16.714 82.954,17.422 C84.535,18.496 85.684,19.717 86.408,21.079 C87.134,22.44 87.494,24.031 87.494,25.848 C87.494,27.361 87.292,28.783 86.887,30.112 C86.484,31.441 85.83,32.583 84.92,33.543 C84.01,34.502 82.817,35.257 81.336,35.813 C79.857,36.368 78.04,36.646 75.889,36.646 L73.163,36.646 C72.793,36.646 72.473,36.512 72.204,36.242 C71.934,35.973 71.799,35.654 71.799,35.284 L71.799,33.669 C71.799,33.3 71.935,32.98 72.204,32.711 C72.473,32.443 72.793,32.308 73.163,32.308 L75.683,32.307 Z M33.802,11.771 C33.802,11.399 33.936,11.081 34.206,10.813 C34.475,10.544 34.794,10.408 35.165,10.408 L37.031,10.408 C37.401,10.408 37.72,10.544 37.989,10.813 C38.258,11.081 38.391,11.399 38.391,11.771 L38.391,25.091 C38.391,27.682 38.972,29.615 40.132,30.895 C41.292,32.173 42.984,32.812 45.203,32.812 C47.322,32.812 48.987,32.174 50.198,30.895 C51.41,29.615 52.014,27.682 52.014,25.091 L52.014,11.771 C52.014,11.399 52.151,11.081 52.418,10.813 C52.687,10.544 53.007,10.408 53.377,10.408 L55.243,10.408 C55.613,10.408 55.932,10.544 56.201,10.813 C56.47,11.081 56.605,11.399 56.605,11.771 L56.605,35.285 C56.605,35.655 56.469,35.974 56.201,36.243 C55.932,36.513 55.612,36.647 55.243,36.647 L53.377,36.647 C53.007,36.647 52.687,36.513 52.418,36.243 C52.149,35.974 52.014,35.655 52.014,35.285 L52.014,33.719 C51.376,34.562 50.468,35.343 49.289,36.067 C48.111,36.791 46.497,37.151 44.445,37.151 C42.864,37.151 41.417,36.892 40.105,36.37 C38.793,35.848 37.667,35.109 36.724,34.151 C35.782,33.192 35.058,32.013 34.554,30.618 C34.05,29.222 33.797,27.632 33.797,25.85 L33.797,11.771 L33.802,11.771 Z M2.317,36.646 C1.948,36.646 1.629,36.512 1.359,36.242 C1.088,35.973 0.955,35.654 0.955,35.284 L0.955,2.689 C0.955,2.317 1.089,1.998 1.359,1.73 C1.629,1.459 1.947,1.326 2.317,1.326 L15.839,1.326 C17.993,1.326 19.777,1.655 21.188,2.31 C22.6,2.967 23.727,3.774 24.57,4.731 C25.411,5.689 26.008,6.724 26.362,7.835 C26.715,8.944 26.891,9.937 26.891,10.812 C26.891,11.921 26.722,12.896 26.386,13.737 C26.051,14.579 25.656,15.284 25.2,15.855 C24.746,16.429 24.291,16.884 23.838,17.219 C23.383,17.555 23.054,17.791 22.854,17.925 C24.132,18.8 25.25,19.952 26.209,21.38 C27.167,22.812 27.647,24.485 27.647,26.402 C27.647,27.681 27.414,28.925 26.943,30.137 C26.47,31.348 25.773,32.442 24.848,33.416 C23.923,34.392 22.762,35.173 21.367,35.763 C19.971,36.352 18.364,36.645 16.548,36.645 L2.317,36.646 Z M5.749,5.867 L5.749,16.06 L15.336,16.06 C17.59,16.06 19.28,15.621 20.407,14.747 C21.533,13.872 22.096,12.611 22.096,10.962 C22.096,9.314 21.534,8.053 20.407,7.179 C19.28,6.304 17.59,5.867 15.336,5.867 L5.749,5.867 Z M5.749,20.6 L5.749,32.103 L16.042,32.103 C17.151,32.103 18.135,31.954 18.993,31.651 C19.85,31.349 20.566,30.927 21.137,30.39 C21.71,29.85 22.139,29.246 22.424,28.574 C22.71,27.9 22.853,27.176 22.853,26.403 C22.853,25.662 22.719,24.94 22.45,24.234 C22.181,23.528 21.767,22.905 21.214,22.368 C20.658,21.828 19.952,21.4 19.094,21.08 C18.237,20.761 17.219,20.601 16.042,20.601 L5.749,20.6 Z" id="path-5"></path>
        <circle id="path-7" cx="46.323" cy="46.924" r="46.001"></circle>
        <rect id="path-9" x="0.701" y="0.302" width="114.713" height="127.459"></rect>
        <rect id="path-11" x="0.323" y="0.923" width="93.47" height="93.472"></rect>
        <rect id="path-13" x="0.701" y="0.302" width="114.713" height="127.459"></rect>
        <rect id="path-15" x="0.701" y="0.302" width="114.713" height="127.459"></rect>
        <rect id="path-17" x="0.323" y="0.923" width="93.47" height="93.472"></rect>
        <rect id="path-19" x="0.701" y="0.302" width="114.713" height="127.459"></rect>
        <rect id="path-21" x="0.701" y="0.302" width="114.713" height="127.459"></rect>
        <rect id="path-23" x="0.323" y="0.923" width="93.47" height="93.472"></rect>
        <rect id="path-25" x="0.701" y="0.302" width="114.713" height="127.459"></rect>
        <rect id="path-27" x="0.701" y="0.302" width="114.713" height="127.459"></rect>
        <rect id="path-29" x="0.323" y="0.923" width="93.47" height="93.472"></rect>
        <rect id="path-31" x="0.701" y="0.302" width="114.713" height="127.459"></rect>
        <rect id="path-33" x="0.701" y="0.302" width="114.713" height="127.459"></rect>
        <rect id="path-35" x="0.323" y="0.923" width="93.47" height="93.472"></rect>
        <rect id="path-37" x="0.701" y="0.302" width="114.713" height="127.459"></rect>
        <rect id="path-39" x="0.701" y="0.302" width="114.713" height="127.459"></rect>
        <rect id="path-41" x="0.323" y="0.923" width="93.47" height="93.472"></rect>
        <rect id="path-43" x="0.701" y="0.302" width="114.713" height="127.459"></rect>
        <circle id="path-45" cx="7.323" cy="6.638" r="6.572"></circle>
        <rect id="path-47" x="0.323" y="0.923" width="93.47" height="93.472"></rect>
        <path d="M35.752,0.462 C36.67,0.462 37.481,0.603 38.18,0.89 C38.883,1.177 39.481,1.528 39.971,1.941 C40.461,2.356 40.832,2.8 41.088,3.275 C41.344,3.752 41.481,4.175 41.496,4.553 C41.512,4.687 41.465,4.804 41.361,4.904 C41.256,5.002 41.134,5.05 41,5.05 L40.072,5.05 C39.904,5.05 39.773,5.02 39.674,4.958 C39.576,4.899 39.475,4.764 39.369,4.553 C39.295,4.403 39.17,4.21 38.998,3.977 C38.822,3.744 38.59,3.518 38.295,3.298 C38,3.08 37.643,2.891 37.223,2.734 C36.799,2.576 36.309,2.496 35.752,2.496 C35.328,2.496 34.926,2.545 34.541,2.643 C34.156,2.74 33.812,2.888 33.512,3.082 C33.211,3.278 32.969,3.523 32.787,3.817 C32.605,4.11 32.517,4.455 32.517,4.845 C32.517,5.239 32.601,5.57 32.779,5.841 C32.951,6.112 33.228,6.358 33.613,6.576 C33.998,6.794 34.484,6.993 35.07,7.174 C35.66,7.356 36.377,7.558 37.222,7.783 C38.079,8.011 38.808,8.259 39.404,8.53 C39.998,8.801 40.486,9.106 40.863,9.445 C41.24,9.786 41.515,10.175 41.687,10.621 C41.861,11.066 41.949,11.567 41.949,12.123 C41.949,12.804 41.801,13.424 41.508,13.989 C41.213,14.553 40.801,15.04 40.276,15.448 C39.747,15.855 39.11,16.171 38.362,16.398 C37.616,16.623 36.786,16.736 35.866,16.736 C34.991,16.736 34.184,16.608 33.446,16.351 C32.706,16.095 32.073,15.763 31.544,15.358 C31.017,14.949 30.599,14.5 30.29,14 C29.981,13.504 29.819,13.014 29.802,12.532 C29.802,12.394 29.853,12.278 29.952,12.181 C30.05,12.083 30.163,12.033 30.302,12.033 L31.23,12.033 C31.378,12.033 31.511,12.063 31.625,12.123 C31.738,12.186 31.84,12.32 31.932,12.532 C32.02,12.742 32.162,12.97 32.348,13.221 C32.537,13.47 32.789,13.703 33.108,13.922 C33.422,14.141 33.807,14.324 34.26,14.474 C34.713,14.627 35.248,14.702 35.867,14.702 C36.392,14.702 36.896,14.64 37.369,14.52 C37.846,14.4 38.262,14.228 38.625,13.999 C38.986,13.774 39.273,13.503 39.486,13.187 C39.695,12.869 39.802,12.515 39.802,12.122 C39.802,11.732 39.679,11.396 39.439,11.118 C39.199,10.838 38.849,10.587 38.4,10.361 C37.947,10.133 37.392,9.925 36.738,9.738 C36.08,9.551 35.338,9.349 34.508,9.139 C33.758,8.944 33.113,8.704 32.586,8.427 C32.061,8.148 31.629,7.827 31.297,7.466 C30.965,7.105 30.729,6.704 30.584,6.267 C30.441,5.83 30.369,5.355 30.369,4.843 C30.369,4.286 30.482,3.743 30.709,3.216 C30.934,2.689 31.27,2.221 31.715,1.815 C32.162,1.409 32.719,1.08 33.391,0.833 C34.061,0.585 34.846,0.462 35.752,0.462 Z M25.436,6.701 C25.409,5.993 25.291,5.374 25.088,4.847 C24.885,4.32 24.602,3.883 24.238,3.535 C23.877,3.188 23.451,2.928 22.961,2.756 C22.471,2.582 21.932,2.496 21.344,2.496 C20.754,2.496 20.215,2.582 19.727,2.756 C19.237,2.928 18.811,3.189 18.448,3.535 C18.087,3.883 17.8,4.319 17.589,4.847 C17.38,5.374 17.265,5.993 17.251,6.701 C17.222,7.38 17.206,8.013 17.206,8.599 C17.206,9.185 17.222,9.821 17.251,10.497 C17.265,11.206 17.38,11.824 17.589,12.351 C17.8,12.879 18.087,13.317 18.448,13.663 C18.811,14.01 19.237,14.27 19.727,14.442 C20.215,14.617 20.754,14.703 21.344,14.703 C21.932,14.703 22.471,14.617 22.961,14.442 C23.451,14.27 23.877,14.009 24.238,13.663 C24.601,13.317 24.884,12.88 25.088,12.351 C25.291,11.824 25.408,11.205 25.436,10.497 C25.467,9.82 25.483,9.185 25.483,8.599 C25.483,8.013 25.467,7.379 25.436,6.701 Z M15.1,6.588 C15.118,5.742 15.264,4.947 15.541,4.202 C15.82,3.455 16.227,2.808 16.752,2.258 C17.279,1.709 17.926,1.272 18.697,0.948 C19.467,0.623 20.347,0.462 21.343,0.462 C22.339,0.462 23.22,0.623 23.989,0.948 C24.757,1.271 25.407,1.709 25.934,2.258 C26.459,2.809 26.866,3.455 27.145,4.202 C27.422,4.947 27.569,5.742 27.584,6.588 C27.631,7.928 27.631,9.27 27.584,10.61 C27.555,11.455 27.4,12.251 27.121,12.997 C26.842,13.743 26.437,14.393 25.912,14.95 C25.381,15.509 24.736,15.946 23.976,16.262 C23.214,16.579 22.337,16.738 21.341,16.738 C20.345,16.738 19.468,16.58 18.706,16.262 C17.944,15.947 17.3,15.509 16.77,14.95 C16.245,14.393 15.84,13.743 15.559,12.997 C15.282,12.251 15.127,11.455 15.096,10.61 C15.055,9.27 15.055,7.928 15.1,6.588 Z M6.575,0.462 C7.493,0.462 8.305,0.603 9.007,0.89 C9.706,1.177 10.304,1.528 10.794,1.941 C11.284,2.356 11.657,2.8 11.913,3.275 C12.169,3.752 12.304,4.175 12.319,4.553 C12.335,4.687 12.29,4.804 12.184,4.904 C12.079,5.002 11.959,5.05 11.823,5.05 L10.895,5.05 C10.729,5.05 10.596,5.02 10.499,4.958 C10.399,4.899 10.298,4.764 10.192,4.553 C10.118,4.403 9.993,4.21 9.821,3.977 C9.647,3.744 9.415,3.518 9.118,3.298 C8.825,3.08 8.468,2.891 8.046,2.734 C7.622,2.576 7.134,2.496 6.575,2.496 C6.153,2.496 5.749,2.545 5.364,2.643 C4.979,2.74 4.637,2.888 4.335,3.082 C4.034,3.278 3.792,3.523 3.612,3.817 C3.432,4.11 3.341,4.455 3.341,4.845 C3.341,5.239 3.427,5.57 3.603,5.841 C3.775,6.112 4.052,6.358 4.437,6.576 C4.822,6.794 5.31,6.993 5.898,7.174 C6.486,7.356 7.203,7.558 8.046,7.783 C8.905,8.011 9.632,8.259 10.228,8.53 C10.826,8.801 11.31,9.106 11.687,9.445 C12.064,9.786 12.339,10.175 12.513,10.621 C12.687,11.067 12.773,11.567 12.773,12.123 C12.773,12.804 12.627,13.424 12.332,13.989 C12.037,14.553 11.627,15.04 11.1,15.448 C10.575,15.855 9.936,16.171 9.19,16.398 C8.442,16.623 7.61,16.736 6.692,16.736 C5.817,16.736 5.008,16.608 4.27,16.351 C3.53,16.095 2.897,15.763 2.372,15.358 C1.841,14.949 1.425,14.5 1.116,14 C0.807,13.504 0.643,13.014 0.628,12.532 C0.628,12.394 0.679,12.278 0.776,12.181 C0.874,12.083 0.991,12.033 1.126,12.033 L2.054,12.033 C2.204,12.033 2.335,12.063 2.45,12.123 C2.561,12.186 2.663,12.32 2.755,12.532 C2.845,12.742 2.985,12.97 3.173,13.221 C3.361,13.47 3.614,13.703 3.931,13.922 C4.249,14.141 4.634,14.324 5.083,14.474 C5.536,14.627 6.073,14.702 6.692,14.702 C7.217,14.702 7.721,14.64 8.194,14.52 C8.671,14.4 9.089,14.228 9.448,13.999 C9.809,13.774 10.096,13.503 10.309,13.187 C10.52,12.869 10.625,12.515 10.625,12.122 C10.625,11.732 10.502,11.396 10.264,11.118 C10.022,10.838 9.674,10.587 9.223,10.361 C8.772,10.133 8.215,9.925 7.561,9.738 C6.903,9.551 6.161,9.349 5.332,9.139 C4.578,8.944 3.937,8.704 3.408,8.427 C2.883,8.148 2.451,7.827 2.121,7.466 C1.787,7.105 1.551,6.704 1.406,6.267 C1.265,5.83 1.193,5.355 1.193,4.843 C1.193,4.286 1.304,3.743 1.531,3.216 C1.758,2.689 2.093,2.221 2.539,1.815 C2.985,1.409 3.541,1.08 4.213,0.833 C4.883,0.585 5.668,0.462 6.575,0.462 Z" id="path-49"></path>
        <path d="M36.936,11.903 C36.936,12.069 36.875,12.21 36.752,12.331 C36.631,12.452 36.488,12.513 36.32,12.513 L35.486,12.513 C35.318,12.513 35.179,12.452 35.058,12.331 C34.937,12.21 34.876,12.069 34.876,11.903 L34.876,5.933 C34.876,4.774 34.601,3.907 34.042,3.334 C33.486,2.76 32.705,2.473 31.709,2.473 C30.759,2.473 29.993,2.76 29.412,3.334 C28.833,3.906 28.542,4.773 28.542,5.933 L28.542,11.903 C28.542,12.069 28.48,12.21 28.361,12.331 C28.241,12.452 28.096,12.513 27.932,12.513 L27.093,12.513 C26.93,12.513 26.784,12.452 26.665,12.331 C26.546,12.21 26.483,12.069 26.483,11.903 L26.483,1.368 C26.483,1.202 26.545,1.058 26.665,0.937 C26.784,0.818 26.93,0.756 27.093,0.756 L27.932,0.756 C28.096,0.756 28.241,0.818 28.361,0.937 C28.48,1.058 28.542,1.202 28.542,1.368 L28.542,2.068 C28.829,1.69 29.253,1.34 29.818,1.017 C30.383,0.692 31.125,0.531 32.047,0.531 C32.757,0.531 33.418,0.648 34.02,0.882 C34.622,1.114 35.135,1.448 35.563,1.876 C35.993,2.307 36.329,2.837 36.569,3.47 C36.809,4.103 36.934,4.812 36.934,5.596 L36.934,11.903 L36.936,11.903 Z M21.56,7.584 C21.591,7.327 21.603,7.015 21.603,6.646 C21.603,6.275 21.59,5.955 21.56,5.685 C21.515,5.234 21.416,4.811 21.264,4.419 C21.114,4.027 20.904,3.687 20.632,3.4 C20.361,3.115 20.03,2.887 19.638,2.722 C19.245,2.556 18.786,2.472 18.257,2.472 C17.731,2.472 17.272,2.556 16.879,2.722 C16.486,2.887 16.155,3.115 15.885,3.4 C15.612,3.686 15.402,4.027 15.252,4.419 C15.1,4.811 15.002,5.233 14.959,5.685 C14.928,5.955 14.912,6.275 14.912,6.646 C14.912,7.015 14.928,7.328 14.959,7.584 C15.003,8.034 15.1,8.459 15.252,8.849 C15.402,9.242 15.612,9.579 15.885,9.867 C16.155,10.154 16.486,10.38 16.879,10.546 C17.272,10.712 17.731,10.795 18.257,10.795 C18.786,10.795 19.246,10.712 19.638,10.546 C20.03,10.38 20.36,10.154 20.632,9.867 C20.904,9.58 21.113,9.242 21.264,8.849 C21.416,8.459 21.515,8.035 21.56,7.584 Z M18.257,0.531 C19.073,0.531 19.796,0.654 20.429,0.904 C21.06,1.151 21.603,1.496 22.056,1.932 C22.509,2.37 22.866,2.9 23.131,3.526 C23.394,4.151 23.555,4.835 23.616,5.571 C23.629,5.708 23.638,5.87 23.638,6.057 L23.638,7.233 C23.638,7.421 23.629,7.576 23.616,7.697 C23.541,8.45 23.373,9.136 23.117,9.755 C22.861,10.374 22.508,10.901 22.055,11.338 C21.602,11.773 21.059,12.116 20.428,12.364 C19.795,12.613 19.073,12.738 18.256,12.738 C17.443,12.738 16.719,12.613 16.088,12.364 C15.454,12.116 14.911,11.772 14.459,11.338 C14.009,10.901 13.651,10.373 13.387,9.755 C13.122,9.137 12.961,8.45 12.901,7.697 C12.886,7.576 12.875,7.422 12.866,7.233 C12.86,7.045 12.857,6.849 12.857,6.646 C12.857,6.443 12.859,6.247 12.866,6.057 C12.875,5.869 12.886,5.707 12.901,5.571 C12.961,4.835 13.122,4.151 13.387,3.526 C13.651,2.9 14.01,2.37 14.459,1.932 C14.912,1.495 15.455,1.151 16.088,0.904 C16.72,0.654 17.444,0.531 18.257,0.531 Z M5.463,12.512 C5.267,12.512 5.117,12.451 5.011,12.33 C4.905,12.209 4.823,12.081 4.763,11.946 L0.263,1.457 C0.248,1.411 0.241,1.357 0.241,1.299 C0.241,1.149 0.294,1.02 0.398,0.914 C0.504,0.809 0.632,0.756 0.782,0.756 L1.619,0.756 C1.844,0.756 2.016,0.818 2.127,0.937 C2.242,1.058 2.321,1.178 2.365,1.299 L5.868,9.505 L9.371,1.299 C9.417,1.178 9.493,1.058 9.599,0.937 C9.703,0.818 9.849,0.756 10.03,0.756 L10.955,0.756 C11.107,0.756 11.236,0.809 11.342,0.914 C11.446,1.019 11.499,1.148 11.499,1.299 C11.499,1.358 11.492,1.411 11.475,1.457 L6.977,11.946 C6.918,12.081 6.838,12.209 6.741,12.33 C6.641,12.451 6.494,12.512 6.3,12.512 L5.463,12.512 Z" id="path-51"></path>
        <circle id="path-53" cx="49.256" cy="49.256" r="48.953"></circle>
        <rect id="path-55" x="0" y="0" width="122.076" height="135.64"></rect>
        <rect id="path-57" x="0.303" y="0.303" width="99.469" height="99.469"></rect>
        <rect id="path-59" x="0" y="0" width="122.076" height="135.64"></rect>
        <path d="M0.277,0.242 L42.236,0.242 L42.236,9.709 C42.236,12.206 40.211,14.23 37.715,14.23 L4.798,14.23 C2.299,14.23 0.277,12.206 0.277,9.709 L0.277,0.242 Z" id="path-61"></path>
        <rect id="path-63" x="0.303" y="0.303" width="99.469" height="99.469"></rect>
        <rect id="path-65" x="0" y="0" width="122.076" height="135.64"></rect>
        <rect id="path-67" x="0.759" y="0.327" width="7.692" height="44.057"></rect>
        <rect id="path-69" x="0.303" y="0.303" width="99.469" height="99.469"></rect>
        <rect id="path-71" x="0" y="0" width="122.076" height="135.64"></rect>
        <path d="M58.83,17.781 L58.83,37.623 C58.83,40.121 56.805,42.145 54.309,42.145 L10.202,42.145 C7.705,42.145 5.681,40.121 5.681,37.623 L5.681,17.781 L4.608,17.781 C2.111,17.781 0.087,15.757 0.087,13.26 L0.087,4.707 C0.087,2.21 2.111,0.186 4.608,0.186 L59.902,0.186 C62.401,0.186 64.423,2.211 64.423,4.707 L64.423,13.26 C64.423,15.757 62.4,17.781 59.902,17.781 L58.83,17.781 Z" id="path-73"></path>
        <rect id="path-75" x="0.303" y="0.303" width="99.469" height="99.469"></rect>
        <rect id="path-77" x="0" y="0" width="122.076" height="135.64"></rect>
        <path d="M25.912,17.562 L30.743,5.853 L23.071,11.842 L21.264,3.961 L18.957,10.281 L11.271,0.266 L16.009,15.524 L0.397,10.281 L13.527,20.608 L7.027,23.096 L13.527,24.551 C6.897,30.234 3.834,32.989 4.337,32.819 C4.839,32.649 8.731,31.269 16.01,28.679 L16.891,20.608 L25.912,17.562 Z" id="path-79"></path>
        <rect id="path-81" x="0.303" y="0.303" width="99.469" height="99.469"></rect>
        <rect id="path-83" x="0" y="0" width="122.076" height="135.64"></rect>
        <circle id="path-85" cx="11.256" cy="10.76" r="10.491"></circle>
        <rect id="path-87" x="0.303" y="0.303" width="99.469" height="99.469"></rect>
        <rect id="path-89" x="0" y="0" width="122.076" height="135.64"></rect>
        <circle id="path-91" cx="7.256" cy="7.759" r="6.994"></circle>
        <rect id="path-93" x="0.303" y="0.303" width="99.469" height="99.469"></rect>
    </defs>
    <g id="logo_raw" stroke="none" stroke-width="1" fill="none" fill-rule="evenodd">
        <g id="Clipped">
            <g transform="translate(349.000000, 82.000000)">
                <g id="Rectangle-path-Clipped">
                    <mask id="mask-2" fill="white">
                        <use xlink:href="#path-1"></use>
                    </mask>
                    <g id="path-1"></g>
                    <rect id="Rectangle-path" fill="#064373" fill-rule="nonzero" mask="url(#mask-2)" x="-10.472" y="-11.289" width="180.892" height="39.447"></rect>
                </g>
            </g>
            <g transform="translate(305.000000, 32.000000)">
                <g id="Rectangle-path-Clipped">
                    <mask id="mask-4" fill="white">
                        <use xlink:href="#path-3"></use>
                    </mask>
                    <g id="path-3"></g>
                    <rect id="Rectangle-path" fill="#FF8E01" fill-rule="nonzero" mask="url(#mask-4)" x="-11.408" y="-10.646" width="160.31" height="59.264"></rect>
                </g>
            </g>
            <g transform="translate(111.000000, 32.000000)">
                <g id="Rectangle-path-Clipped">
                    <mask id="mask-6" fill="white">
                        <use xlink:href="#path-5"></use>
                    </mask>
                    <g id="path-5"></g>
                    <rect id="Rectangle-path" fill="#064373" fill-rule="nonzero" mask="url(#mask-6)" x="-10.512" y="-10.646" width="208.769" height="69.86"></rect>
                </g>
            </g>
            <g transform="translate(0.000000, 4.000000)">
                <g>
                    <mask id="mask-8" fill="white">
                        <use xlink:href="#path-7"></use>
                    </mask>
                    <g id="path-7"></g>
                    <g id="Group" mask="url(#mask-8)">
                        <g transform="translate(-11.000000, -10.000000)" id="Group-Clipped">
                            <g>
                                <mask id="mask-10" fill="white">
                                    <use xlink:href="#path-9"></use>
                                </mask>
                                <g id="path-9"></g>
                                <g id="Group" mask="url(#mask-10)">
                                    <g id="Clipped" transform="translate(11.000000, 10.000000)">
                                        <g id="Rectangle-path-Clipped">
                                            <mask id="mask-12" fill="white">
                                                <use xlink:href="#path-11"></use>
                                            </mask>
                                            <g id="path-11"></g>
                                            <rect id="Rectangle-path" fill="#174466" fill-rule="nonzero" mask="url(#mask-12)" x="-10.299" y="-9.698" width="113.243" height="113.245"></rect>
                                        </g>
                                    </g>
                                    <g id="Clipped">
                                        <g id="Group-Clipped">
                                            <mask id="mask-14" fill="white">
                                                <use xlink:href="#path-13"></use>
                                            </mask>
                                            <g id="path-13"></g>
                                            <g id="Group" mask="url(#mask-14)">
                                                <g id="Clipped">
                                                    <g>
                                                        <mask id="mask-16" fill="white">
                                                            <use xlink:href="#path-15"></use>
                                                        </mask>
                                                        <g id="path-17"></g>
                                                        <g id="Group" mask="url(#mask-16)">
                                                            <g transform="translate(11.000000, 10.000000)" id="Rectangle-path-Clipped">
                                                                <g>
                                                                    <mask id="mask-18" fill="white">
                                                                        <use xlink:href="#path-17"></use>
                                                                    </mask>
                                                                    <g id="path-19"></g>
                                                                    <rect id="Rectangle-path" fill="#FFFFFF" fill-rule="nonzero" mask="url(#mask-18)" x="15.987" y="49.445" width="60.672" height="34.388"></rect>
                                                                </g>
                                                            </g>
                                                        </g>
                                                    </g>
                                                </g>
                                                <g id="Clipped">
                                                    <g id="Group-Clipped">
                                                        <mask id="mask-20" fill="white">
                                                            <use xlink:href="#path-19"></use>
                                                        </mask>
                                                        <g id="path-21"></g>
                                                        <g id="Group" mask="url(#mask-20)">
                                                            <g id="Clipped">
                                                                <g>
                                                                    <mask id="mask-22" fill="white">
                                                                        <use xlink:href="#path-21"></use>
                                                                    </mask>
                                                                    <g id="path-25"></g>
                                                                    <g id="Group" mask="url(#mask-22)">
                                                                        <g transform="translate(11.000000, 10.000000)" id="Rectangle-path-Clipped">
                                                                            <g>
                                                                                <mask id="mask-24" fill="white">
                                                                                    <use xlink:href="#path-23"></use>
                                                                                </mask>
                                                                                <g id="path-27"></g>
                                                                                <rect id="Rectangle-path" fill="#FFFFFF" fill-rule="nonzero" mask="url(#mask-24)" x="32.415" y="64.56" width="28.472" height="62.643"></rect>
                                                                            </g>
                                                                        </g>
                                                                    </g>
                                                                </g>
                                                            </g>
                                                            <g id="Clipped">
                                                                <g id="Group-Clipped">
                                                                    <mask id="mask-26" fill="white">
                                                                        <use xlink:href="#path-25"></use>
                                                                    </mask>
                                                                    <g id="path-29"></g>
                                                                    <g id="Group" mask="url(#mask-26)">
                                                                        <g id="Clipped">
                                                                            <g>
                                                                                <mask id="mask-28" fill="white">
                                                                                    <use xlink:href="#path-27"></use>
                                                                                </mask>
                                                                                <g id="path-33"></g>
                                                                                <g id="Group" mask="url(#mask-28)">
                                                                                    <g transform="translate(11.000000, 10.000000)" id="Rectangle-path-Clipped">
                                                                                        <g>
                                                                                            <mask id="mask-30" fill="white">
                                                                                                <use xlink:href="#path-29"></use>
                                                                                            </mask>
                                                                                            <g id="path-35"></g>
                                                                                            <rect id="Rectangle-path" fill="#FFFFFF" fill-rule="nonzero" mask="url(#mask-30)" x="5.471" y="8.045" width="81.701" height="60.671"></rect>
                                                                                        </g>
                                                                                    </g>
                                                                                </g>
                                                                            </g>
                                                                        </g>
                                                                        <g id="Clipped">
                                                                            <g id="Group-Clipped">
                                                                                <mask id="mask-32" fill="white">
                                                                                    <use xlink:href="#path-31"></use>
                                                                                </mask>
                                                                                <g id="path-37"></g>
                                                                                <g id="Group" mask="url(#mask-32)">
                                                                                    <g id="Clipped">
                                                                                        <g>
                                                                                            <mask id="mask-34" fill="white">
                                                                                                <use xlink:href="#path-33"></use>
                                                                                            </mask>
                                                                                            <g id="path-41"></g>
                                                                                            <g id="Group" mask="url(#mask-34)">
                                                                                                <g transform="translate(11.000000, 10.000000)" id="Rectangle-path-Clipped">
                                                                                                    <g>
                                                                                                        <mask id="mask-36" fill="white">
                                                                                                            <use xlink:href="#path-35"></use>
                                                                                                        </mask>
                                                                                                        <g id="path-43"></g>
                                                                                                        <rect id="Rectangle-path" fill="#EA8738" fill-rule="nonzero" mask="url(#mask-36)" x="13.281" y="10.002" width="49.758" height="51.839"></rect>
                                                                                                    </g>
                                                                                                </g>
                                                                                            </g>
                                                                                        </g>
                                                                                    </g>
                                                                                    <g id="Clipped">
                                                                                        <g id="Group-Clipped">
                                                                                            <mask id="mask-38" fill="white">
                                                                                                <use xlink:href="#path-37"></use>
                                                                                            </mask>
                                                                                            <g id="path-45"></g>
                                                                                            <g id="Group" mask="url(#mask-38)">
                                                                                                <g id="Clipped">
                                                                                                    <g>
                                                                                                        <mask id="mask-40" fill="white">
                                                                                                            <use xlink:href="#path-39"></use>
                                                                                                        </mask>
                                                                                                        <g id="path-49"></g>
                                                                                                        <g id="Group" mask="url(#mask-40)">
                                                                                                            <g transform="translate(11.000000, 10.000000)" id="Rectangle-path-Clipped">
                                                                                                                <g>
                                                                                                                    <mask id="mask-42" fill="white">
                                                                                                                        <use xlink:href="#path-41"></use>
                                                                                                                    </mask>
                                                                                                                    <g id="path-51"></g>
                                                                                                                    <rect id="Rectangle-path" fill="#EA8738" fill-rule="nonzero" mask="url(#mask-42)" x="25.843" y="23.158" width="40.958" height="40.96"></rect>
                                                                                                                </g>
                                                                                                            </g>
                                                                                                        </g>
                                                                                                    </g>
                                                                                                </g>
                                                                                                <g id="Clipped">
                                                                                                    <g>
                                                                                                        <mask id="mask-44" fill="white">
                                                                                                            <use xlink:href="#path-43"></use>
                                                                                                        </mask>
                                                                                                        <g id="path-53"></g>
                                                                                                        <g id="Group" mask="url(#mask-44)">
                                                                                                            <g transform="translate(50.000000, 47.000000)" id="Clipped-Clipped">
                                                                                                                <g>
                                                                                                                    <mask id="mask-46" fill="white">
                                                                                                                        <use xlink:href="#path-45"></use>
                                                                                                                    </mask>
                                                                                                                    <g id="path-55"></g>
                                                                                                                    <g id="Clipped" mask="url(#mask-46)">
                                                                                                                        <g transform="translate(-39.000000, -37.000000)" id="Group">
                                                                                                                            <g>
                                                                                                                                <g id="Rectangle-path-Clipped">
                                                                                                                                    <mask id="mask-48" fill="white">
                                                                                                                                        <use xlink:href="#path-47"></use>
                                                                                                                                    </mask>
                                                                                                                                    <g id="path-57"></g>
                                                                                                                                    <rect id="Rectangle-path" fill="#FFFFFF" fill-rule="nonzero" mask="url(#mask-48)" x="29.129" y="26.445" width="34.386" height="34.388"></rect>
                                                                                                                                </g>
                                                                                                                            </g>
                                                                                                                        </g>
                                                                                                                    </g>
                                                                                                                </g>
                                                                                                            </g>
                                                                                                        </g>
                                                                                                    </g>
                                                                                                </g>
                                                                                            </g>
                                                                                        </g>
                                                                                    </g>
                                                                                </g>
                                                                            </g>
                                                                        </g>
                                                                    </g>
                                                                </g>
                                                            </g>
                                                        </g>
                                                    </g>
                                                </g>
                                            </g>
                                        </g>
                                    </g>
                                </g>
                            </g>
                        </g>
                    </g>
                </g>
            </g>
            <g transform="translate(308.000000, 81.000000)">
                <g id="Rectangle-path-Clipped">
                    <mask id="mask-50" fill="white">
                        <use xlink:href="#path-49"></use>
                    </mask>
                    <g id="path-59"></g>
                    <rect id="Rectangle-path" fill="#FF8E01" fill-rule="nonzero" mask="url(#mask-50)" x="-10.685" y="-10.841" width="63.939" height="38.882"></rect>
                </g>
            </g>
            <g transform="translate(263.000000, 85.000000)">
                <g id="Rectangle-path-Clipped">
                    <mask id="mask-52" fill="white">
                        <use xlink:href="#path-51"></use>
                    </mask>
                    <g id="path-61"></g>
                    <rect id="Rectangle-path" fill="#064373" fill-rule="nonzero" mask="url(#mask-52)" x="-11.062" y="-10.772" width="59.313" height="34.813"></rect>
                </g>
            </g>
            <g>
                <g id="Group-Clipped">
                    <mask id="mask-54" fill="white">
                        <use xlink:href="#path-53"></use>
                    </mask>
                    <g id="path-63"></g>
                    <g id="Group" mask="url(#mask-54)">
                        <g transform="translate(-11.000000, -11.000000)" id="Clipped">
                            <g>
                                <g id="Group">
                                    <g id="Clipped">
                                        <mask id="mask-56" fill="white">
                                            <use xlink:href="#path-55"></use>
                                        </mask>
                                        <g id="path-65"></g>
                                        <g id="Group" mask="url(#mask-56)">
                                            <g transform="translate(11.000000, 11.000000)" id="Rectangle-path-Clipped">
                                                <g>
                                                    <mask id="mask-58" fill="white">
                                                        <use xlink:href="#path-57"></use>
                                                    </mask>
                                                    <g id="path-67"></g>
                                                    <rect id="Rectangle-path" fill="#174466" fill-rule="nonzero" mask="url(#mask-58)" x="-11" y="-11" width="120.512" height="120.513"></rect>
                                                </g>
                                            </g>
                                        </g>
                                    </g>
                                </g>
                                <g id="Group">
                                    <g id="Clipped">
                                        <mask id="mask-60" fill="white">
                                            <use xlink:href="#path-59"></use>
                                        </mask>
                                        <g id="path-69"></g>
                                        <g id="Group" mask="url(#mask-60)">
                                            <g transform="translate(39.000000, 74.000000)" id="Clipped-Clipped">
                                                <g>
                                                    <mask id="mask-62" fill="white">
                                                        <use xlink:href="#path-61"></use>
                                                    </mask>
                                                    <g id="path-71"></g>
                                                    <g id="Clipped" mask="url(#mask-62)">
                                                        <g transform="translate(-28.000000, -63.000000)" id="Group">
                                                            <g>
                                                                <g id="Rectangle-path-Clipped">
                                                                    <mask id="mask-64" fill="white">
                                                                        <use xlink:href="#path-63"></use>
                                                                    </mask>
                                                                    <g id="path-73"></g>
                                                                    <rect id="Rectangle-path" fill="#FFFFFF" fill-rule="nonzero" mask="url(#mask-64)" x="16.974" y="51.938" width="64.565" height="36.595"></rect>
                                                                </g>
                                                            </g>
                                                        </g>
                                                    </g>
                                                </g>
                                            </g>
                                        </g>
                                    </g>
                                </g>
                                <g id="Group">
                                    <g id="Clipped">
                                        <mask id="mask-66" fill="white">
                                            <use xlink:href="#path-65"></use>
                                        </mask>
                                        <g id="path-75"></g>
                                        <g id="Group" mask="url(#mask-66)">
                                            <g transform="translate(56.000000, 90.000000)" id="Clipped-Clipped">
                                                <g>
                                                    <mask id="mask-68" fill="white">
                                                        <use xlink:href="#path-67"></use>
                                                    </mask>
                                                    <g id="path-77"></g>
                                                    <g id="Clipped" mask="url(#mask-68)">
                                                        <g transform="translate(-45.000000, -79.000000)" id="Group">
                                                            <g>
                                                                <g id="Rectangle-path-Clipped">
                                                                    <mask id="mask-70" fill="white">
                                                                        <use xlink:href="#path-69"></use>
                                                                    </mask>
                                                                    <g id="path-79"></g>
                                                                    <rect id="Rectangle-path" fill="#FFFFFF" fill-rule="nonzero" mask="url(#mask-70)" x="34.456" y="68.024" width="30.299" height="66.663"></rect>
                                                                </g>
                                                            </g>
                                                        </g>
                                                    </g>
                                                </g>
                                            </g>
                                        </g>
                                    </g>
                                </g>
                                <g id="Group">
                                    <g id="Clipped">
                                        <mask id="mask-72" fill="white">
                                            <use xlink:href="#path-71"></use>
                                        </mask>
                                        <g id="path-81"></g>
                                        <g id="Group" mask="url(#mask-72)">
                                            <g transform="translate(28.000000, 30.000000)" id="Clipped-Clipped">
                                                <g>
                                                    <mask id="mask-74" fill="white">
                                                        <use xlink:href="#path-73"></use>
                                                    </mask>
                                                    <g id="path-83"></g>
                                                    <g id="Clipped" mask="url(#mask-74)">
                                                        <g transform="translate(-17.000000, -19.000000)" id="Group">
                                                            <g>
                                                                <g id="Rectangle-path-Clipped">
                                                                    <mask id="mask-76" fill="white">
                                                                        <use xlink:href="#path-75"></use>
                                                                    </mask>
                                                                    <g id="path-85"></g>
                                                                    <rect id="Rectangle-path" fill="#FFFFFF" fill-rule="nonzero" mask="url(#mask-76)" x="5.784" y="7.882" width="86.943" height="64.566"></rect>
                                                                </g>
                                                            </g>
                                                        </g>
                                                    </g>
                                                </g>
                                            </g>
                                        </g>
                                    </g>
                                </g>
                                <g id="Group">
                                    <g id="Clipped">
                                        <mask id="mask-78" fill="white">
                                            <use xlink:href="#path-77"></use>
                                        </mask>
                                        <g id="path-87"></g>
                                        <g id="Group" mask="url(#mask-78)">
                                            <g transform="translate(36.000000, 32.000000)" id="Clipped-Clipped">
                                                <g>
                                                    <mask id="mask-80" fill="white">
                                                        <use xlink:href="#path-79"></use>
                                                    </mask>
                                                    <g id="path-89"></g>
                                                    <g id="Clipped" mask="url(#mask-80)">
                                                        <g transform="translate(-25.000000, -21.000000)" id="Group">
                                                            <g>
                                                                <g id="Rectangle-path-Clipped">
                                                                    <mask id="mask-82" fill="white">
                                                                        <use xlink:href="#path-81"></use>
                                                                    </mask>
                                                                    <g id="path-91"></g>
                                                                    <rect id="Rectangle-path" fill="#EA8738" fill-rule="nonzero" mask="url(#mask-82)" x="14.094" y="9.964" width="52.952" height="55.166"></rect>
                                                                </g>
                                                            </g>
                                                        </g>
                                                    </g>
                                                </g>
                                            </g>
                                        </g>
                                    </g>
                                </g>
                                <g id="Group">
                                    <g id="Clipped">
                                        <mask id="mask-84" fill="white">
                                            <use xlink:href="#path-83"></use>
                                        </mask>
                                        <g id="path-93"></g>
                                        <g id="Group" mask="url(#mask-84)">
                                            <g transform="translate(49.000000, 46.000000)" id="Clipped-Clipped">
                                                <g>
                                                    <mask id="mask-86" fill="white">
                                                        <use xlink:href="#path-85"></use>
                                                    </mask>
                                                    <g id="path-95"></g>
                                                    <g id="Clipped" mask="url(#mask-86)">
                                                        <g transform="translate(-38.000000, -35.000000)" id="Group">
                                                            <g>
                                                                <g id="Rectangle-path-Clipped">
                                                                    <mask id="mask-88" fill="white">
                                                                        <use xlink:href="#path-87"></use>
                                                                    </mask>
                                                                    <g id="path-97"></g>
                                                                    <rect id="Rectangle-path" fill="#EA8738" fill-rule="nonzero" mask="url(#mask-88)" x="27.463" y="23.965" width="43.586" height="43.588"></rect>
                                                                </g>
                                                            </g>
                                                        </g>
                                                    </g>
                                                </g>
                                            </g>
                                        </g>
                                    </g>
                                </g>
                                <g id="Group">
                                    <g id="Clipped">
                                        <mask id="mask-90" fill="white">
                                            <use xlink:href="#path-89"></use>
                                        </mask>
                                        <g id="path-99"></g>
                                        <g id="Group" mask="url(#mask-90)">
                                            <g transform="translate(53.000000, 49.000000)" id="Clipped-Clipped">
                                                <g>
                                                    <mask id="mask-92" fill="white">
                                                        <use xlink:href="#path-91"></use>
                                                    </mask>
                                                    <g id="path-101"></g>
                                                    <g id="Clipped" mask="url(#mask-92)">
                                                        <g transform="translate(-42.000000, -38.000000)" id="Group">
                                                            <g>
                                                                <g id="Rectangle-path-Clipped">
                                                                    <mask id="mask-94" fill="white">
                                                                        <use xlink:href="#path-93"></use>
                                                                    </mask>
                                                                    <g id="path-103"></g>
                                                                    <rect id="Rectangle-path" fill="#FFFFFF" fill-rule="nonzero" mask="url(#mask-94)" x="30.959" y="27.462" width="36.593" height="36.595"></rect>
                                                                </g>
                                                            </g>
                                                        </g>
                                                    </g>
                                                </g>
                                            </g>
                                        </g>
                                    </g>
                                </g>
                            </g>
                        </g>
                    </g>
                </g>
            </g>
        </g>
    </g>
</svg>
